<svg xmlns="http://www.w3.org/2000/svg" xmlns:xlink="http://www.w3.org/1999/xlink" version="1.1" width="882.8" height="606.1" viewBox="12.4 0.2 882.8 606.1"><g><g transform="translate(158,43)"><g><g>
<path d="M653,0H0v284h653V0L653,0z" stroke="#000000" stroke-dasharray="5,5" fill="#FFFFFF"/>
<rect x="28.6" y="12.9" width="595.9" height="258.1" fill="none"/>
<circle fill="none" cx="326.5" cy="0" r="0.1"/>
<circle fill="none" cx="488.3" cy="0" r="0.1"/>
<circle fill="none" cx="653" cy="71.6" r="0.1"/>
<circle fill="none" cx="653" cy="142" r="0.1"/>
<circle fill="none" cx="653" cy="212.4" r="0.1"/>
<circle fill="none" cx="488.3" cy="284" r="0.1"/>
<circle fill="none" cx="326.5" cy="284" r="0.1"/>
<circle fill="none" cx="164.7" cy="284" r="0.1"/>
<circle fill="none" cx="0" cy="212.4" r="0.1"/>
<circle fill="none" cx="0" cy="142" r="0.1"/>
<circle fill="none" cx="0" cy="71.6" r="0.1"/>
<circle fill="none" cx="164.7" cy="0" r="0.1"/>
</g></g><rect stroke="none" stroke-width="1" fill="#FFFFFF" x="0" y="0" width="40" height="20" transform="translate(684.8,232.3)"/><path stroke="#000000" fill="none" d="M653,212.4 C659.2,235.5 681.3,209.2 687.5 232.3"/><text font-family="OpenSansCondensedLight" font-size="14pt" fill="black" transform="translate(684.8,232.3)" text-anchor="middle"><tspan x="20" y="16.3">102</tspan></text><rect stroke-width="0" fill="none" width="595.9" height="258.1" transform="translate(28.6,12.9)"/><text font-family="OpenSansCondensedLight" font-size="14pt" fill="black" transform="translate(28.6,12.9)" text-anchor="middle"><tspan x="298" y="135.3"> </tspan></text><path stroke="#000000" fill="none" transform="translate(28.6,12.9)" d="M 0 0"/></g><g transform="translate(527,130)"><g><g>
<path d="M68.5,0c-14.8,0,-27.3,7.8,-31.9,18.8C16.1,20.8,0,35.3,0,53.1c0,19,18.4,34.6,41,34.6c1.1,0,2.4,0,3.5,-0.2c4,11.3,16.1,19.5,31.1,19.5c12.2,0,22.9,-5.8,28.2,-14.3c5.6,5,13.7,8,22.6,8c13.9,0,25.9,-7.5,30.1,-18.1c0.3,0,0.3,0,0.6,0c18.7,0,33.9,-12.8,33.9,-28.5s-15.2,-28.6,-34,-28.6c-3.6,0,-6.9,0.5,-9.8,1.3c-3,-10.8,-14.6,-18.8,-28.2,-18.8c-8,0,-15.2,2.7,-20.6,7.3C92.8,6.2,81.5,0,68.5,0L68.5,0z" stroke="#000000" stroke-dasharray="none" fill="#FFFFFF"/>
<rect x="17.3" y="33.3" width="153.2" height="40.6" fill="none"/>
<circle fill="none" cx="98.5" cy="15.2" r="0.1"/>
<circle fill="none" cx="125.5" cy="8.6" r="0.1"/>
<circle fill="none" cx="147.3" cy="26.8" r="0.1"/>
<circle fill="none" cx="191" cy="53.2" r="0.1"/>
<circle fill="none" cx="156.5" cy="82.7" r="0.1"/>
<circle fill="none" cx="128.8" cy="100.7" r="0.1"/>
<circle fill="none" cx="103.8" cy="92.7" r="0.1"/>
<circle fill="none" cx="74.6" cy="107" r="0.1"/>
<circle fill="none" cx="0" cy="53.1" r="0.1"/>
<circle fill="none" cx="44.6" cy="87.5" r="0.1"/>
<circle fill="none" cx="36.6" cy="18.8" r="0.1"/>
<circle fill="none" cx="68.4" cy="0" r="0.1"/>
</g></g><rect stroke="none" stroke-width="1" fill="#FFFFFF" x="0" y="0" width="40" height="20" transform="translate(135.4,-53.4)"/><path stroke="#000000" fill="none" d="M125.5,8.6 C153.5,1 121.5,-25.8 149.6 -33.4"/><text font-family="OpenSansCondensedLight" font-size="14pt" fill="black" transform="translate(135.4,-53.4)" text-anchor="middle"><tspan x="20" y="16.3">104</tspan></text><rect stroke-width="0" fill="none" width="153.2" height="40.6" transform="translate(17.3,33.3)"/><text font-family="OpenSansCondensedLight" font-size="14pt" fill="black" transform="translate(17.3,33.3)" text-anchor="middle"><tspan x="76.6" y="26.6">WIDE AREA NETWORK</tspan></text><path stroke="#000000" fill="none" transform="translate(17.3,33.3)" d="M 0 0"/></g><g transform="translate(178,255)"><g><g>
<path d="M103,0H0v52h103V0L103,0z" stroke="#000000" stroke-dasharray="none" fill="#FFFFFF"/>
<rect x="4.5" y="2.4" width="94" height="47.3" fill="none"/>
<circle fill="none" cx="51.5" cy="0" r="0.1"/>
<circle fill="none" cx="77" cy="0" r="0.1"/>
<circle fill="none" cx="103" cy="13.1" r="0.1"/>
<circle fill="none" cx="103" cy="26" r="0.1"/>
<circle fill="none" cx="103" cy="38.9" r="0.1"/>
<circle fill="none" cx="77" cy="52" r="0.1"/>
<circle fill="none" cx="51.5" cy="52" r="0.1"/>
<circle fill="none" cx="26" cy="52" r="0.1"/>
<circle fill="none" cx="0" cy="38.9" r="0.1"/>
<circle fill="none" cx="0" cy="26" r="0.1"/>
<circle fill="none" cx="0" cy="13.1" r="0.1"/>
<circle fill="none" cx="26" cy="0" r="0.1"/>
</g></g><rect stroke="none" stroke-width="1" fill="#FFFFFF" x="0" y="0" width="40" height="20" transform="translate(86.9,-62.1)"/><path stroke="#000000" fill="none" d="M77,0 C105.1,-7.6 73.1,-34.5 101.2 -42.1"/><text font-family="OpenSansCondensedLight" font-size="14pt" fill="black" transform="translate(86.9,-62.1)" text-anchor="middle"><tspan x="20" y="16.3">106</tspan></text><rect stroke-width="0" fill="none" width="94" height="47.3" transform="translate(4.5,2.4)"/><text font-family="OpenSansCondensedLight" font-size="14pt" fill="black" transform="translate(4.5,2.4)" text-anchor="middle"><tspan x="47" y="29.9">ACCESS DEVICE</tspan></text><path stroke="#000000" fill="none" transform="translate(4.5,2.4)" d="M 0 0"/></g><g><path stroke="black" stroke-dasharray="none" d="M 289 265 519 186" fill="none"/><path fill="black" stroke="black" d="M 8 0 L 0 4 L 8 8 z" transform="translate(279.7,264.2) scale(1,1) rotate(-19.1)"/><path fill="black" stroke="black" d="M 8 0 L 0 4 L 8 8 z" transform="translate(528.3,186.8) scale(1,1) rotate(-199.1)"/><g><g label-idx="0" cursor="move" transform="translate(404, 225.5)"><rect fill="white" rx="3" ry="3" x="0" y="0" width="0" height="0"/><text text-anchor="middle" font-size="14pt" font-family="OpenSansCondensedLight" y="0.8em" display="none" xml:space="preserve" transform="translate(0,0)"/></g></g></g><g transform="translate(275,68)"><g><g>
<path d="M126,0H0v54h126V0L126,0z" stroke="#000000" stroke-dasharray="none" fill="#FFFFFF"/>
<rect x="5.5" y="2.5" width="115" height="49.1" fill="none"/>
<circle fill="none" cx="63" cy="0" r="0.1"/>
<circle fill="none" cx="94.2" cy="0" r="0.1"/>
<circle fill="none" cx="126" cy="13.6" r="0.1"/>
<circle fill="none" cx="126" cy="27" r="0.1"/>
<circle fill="none" cx="126" cy="40.4" r="0.1"/>
<circle fill="none" cx="94.2" cy="54" r="0.1"/>
<circle fill="none" cx="63" cy="54" r="0.1"/>
<circle fill="none" cx="31.8" cy="54" r="0.1"/>
<circle fill="none" cx="0" cy="40.4" r="0.1"/>
<circle fill="none" cx="0" cy="27" r="0.1"/>
<circle fill="none" cx="0" cy="13.6" r="0.1"/>
<circle fill="none" cx="31.8" cy="0" r="0.1"/>
</g></g><rect stroke="none" stroke-width="1" fill="#FFFFFF" x="0" y="0" width="40" height="20" transform="translate(104.1,-62.1)"/><path stroke="#000000" fill="none" d="M94.2,0 C122.3,-7.6 90.3,-34.5 118.4 -42.1"/><text font-family="OpenSansCondensedLight" font-size="14pt" fill="black" transform="translate(104.1,-62.1)" text-anchor="middle"><tspan x="20" y="16.3">108</tspan></text><rect stroke-width="0" fill="none" width="115" height="49.1" transform="translate(5.5,2.5)"/><text font-family="OpenSansCondensedLight" font-size="14pt" fill="black" transform="translate(5.5,2.5)" text-anchor="middle"><tspan x="57.5" y="30.8">GATEWAY</tspan></text><path stroke="#000000" fill="none" transform="translate(5.5,2.5)" d="M 0 0"/></g><g><path stroke="black" stroke-dasharray="none" d="M 409 110 538 149" fill="none"/><path fill="black" stroke="black" d="M 8 0 L 0 4 L 8 8 z" transform="translate(402.1,104.2) scale(1,1) rotate(16.5)"/><path fill="black" stroke="black" d="M 8 0 L 0 4 L 8 8 z" transform="translate(544.9,154.8) scale(1,1) rotate(-163.5)"/><g><g label-idx="0" cursor="move" transform="translate(473.5, 129.5)"><rect fill="white" rx="3" ry="3" x="0" y="0" width="0" height="0"/><text text-anchor="middle" font-size="14pt" font-family="OpenSansCondensedLight" y="0.8em" display="none" xml:space="preserve" transform="translate(0,0)"/></g></g></g><g transform="translate(186,65)"><g><g>
<g stroke="#000000" stroke-dasharray="none" fill="#FFFFFF">
    <ellipse cx="22.8" cy="14" rx="3" ry="3"/>
    <polygon points="45.7,109.6 22.8,119.8 0,109.6 22.8,17"/>
</g>
<g fill="none" stroke="#000000" stroke-dasharray="none">
    <line x1="22.8" y1="17" x2="22.8" y2="119.8"/>
    <ellipse cx="22.8" cy="14" rx="3" ry="3"/>
    <line x1="22.8" y1="17" x2="0" y2="109.6"/>
    <line x1="22.8" y1="17" x2="45.7" y2="109.6"/>
    <polygon points="22.8,34.3 19,32.5 22.8,30.6 26.6,32.6"/>
    <polygon points="22.8,39.4 17.8,37.1 22.8,34.7 27.7,37.2"/>
    <polygon points="22.8,46.1 16.4,43 22.8,40 29.2,43.1"/>
    <polygon points="22.8,54.4 14.5,50.8 22.8,46.7 31.1,50.9"/>
    <polygon points="22.8,65.4 12.1,60.5 22.8,55.4 33.6,60.6"/>
    <polygon points="22.8,79.2 9,73.1 22.8,66.4 36.6,72.9"/>
    <polygon points="22.8,97.1 5.1,89.2 22.8,80.7 40.6,88.9"/>
    <polygon points="22.8,119.8 0,109.6 22.8,98.9 45.7,109.6"/>
    <path d="M29.2,26.4c4.4,-2.4,7.4,-7.1,7.4,-12.4C36.5,6.3,30.4,0,22.8,0S9,6.3,9,14.1c0,5.5,3,10.2,7.4,12.4"/>
    <path d="M28.2,22.1c2.6,-1.9,4.2,-4.6,4.2,-8.1c0,-5.3,-4.2,-9.8,-9.6,-9.8S13.2,8.8,13.2,14.1c0,3.5,1.8,6.3,4.4,8.1"/>
    <path d="M27.2,18.1c1,-1,1.6,-2.4,1.6,-4c0,-3.3,-2.6,-5.9,-5.8,-5.9S17,10.8,17,14.1c0,1.6,0.6,3,1.6,4.3"/>
</g>
<rect x="2.8" y="43.9" width="41.2" height="40.7" fill="none"/>
<circle fill="none" cx="22.7" cy="0" r="0.1"/>
<circle fill="none" cx="36.5" cy="14.1" r="0.1"/>
<circle fill="none" cx="27.8" cy="37.2" r="0.1"/>
<circle fill="none" cx="33.6" cy="60.6" r="0.1"/>
<circle fill="none" cx="40.6" cy="88.9" r="0.1"/>
<circle fill="none" cx="45.7" cy="109.6" r="0.1"/>
<circle fill="none" cx="22.8" cy="119.8" r="0.1"/>
<circle fill="none" cx="0" cy="109.6" r="0.1"/>
<circle fill="none" cx="5.1" cy="89.2" r="0.1"/>
<circle fill="none" cx="12.1" cy="60.5" r="0.1"/>
<circle fill="none" cx="17.8" cy="37.1" r="0.1"/>
<circle fill="none" cx="9" cy="14.1" r="0.1"/>
</g></g><rect stroke="none" stroke-width="0" fill="#FFFFFF" x="0" y="0" width="0" height="0" transform="translate(27.7,37.1)"/><path stroke="#000000" fill="none" d=""/><text font-family="OpenSansCondensedLight" font-size="14pt" fill="black" transform="translate(27.7,37.1)"/><rect stroke-width="0" fill="none" width="137.8" transform="translate(-46,129.9)"/><text font-family="OpenSansCondensedLight" font-size="14pt" fill="black" transform="translate(-46,129.9)" text-anchor="middle"><tspan x="68.9" y="16.8"> 110</tspan></text><path stroke="#000000" fill="none" transform="translate(-46,129.9)" d="M 52.8 19 80.1 19"/></g><g><path stroke="black" stroke-dasharray="none" d="M 234 95 267 95" fill="none"/><path fill="black" stroke="black" d="M 8 0 L 0 4 L 8 8 z" transform="translate(226,91) scale(1,1) rotate(0)"/><path fill="black" stroke="black" d="M 8 0 L 0 4 L 8 8 z" transform="translate(275,99) scale(1,1) rotate(-180)"/><g><g label-idx="0" cursor="move" transform="translate(250.5, 95)"><rect fill="white" rx="3" ry="3" x="0" y="0" width="0" height="0"/><text text-anchor="middle" font-size="14pt" font-family="OpenSansCondensedLight" y="0.8em" display="none" xml:space="preserve" transform="translate(0,0)"/></g></g></g><g transform="translate(13,63)"><g><g>
<g stroke="#000000" stroke-dasharray="none" fill="#FFFFFF">
    <path d="M118.9,0H10.1C4.4,0,0,4.3,0,9.9v153.3c0,5.5,4.4,9.9,10.1,9.9h108.8c5.7,0,10.1,-4.3,10.1,-9.9V9.9C129,4.3,124.5,0,118.9,0L118.9,0z"/>
    <path d="M56.6,8.6c0.6,0,1.2,0.6,1.2,1.2c0,0.6,-0.6,1.2,-1.2,1.2s-1.2,-0.6,-1.2,-1.2C55.8,9.2,56,8.6,56.6,8.6"/>
    <path d="M73.2,8.6c0.6,0,1.2,0.6,1.2,1.2c0,0.6,-0.6,1.2,-1.2,1.2h-10.9c-0.6,0,-1.2,-0.6,-1.2,-1.2c0,-0.6,0.6,-1.2,1.2,-1.2H73.2"/>
    <path d="M64.5,159.6c2.7,0,4.8,2,4.8,4.7s-2.1,4.7,-4.8,4.7s-4.8,-2,-4.8,-4.7S61.8,159.6,64.5,159.6"/>
    <path d="M120.4,16.2h-1.5H10.1h-1.5v1.4v137.7v1.4h1.5h108.8h1.5v-1.4V17.7L120.4,16.2L120.4,16.2z"/>
</g>
<rect x="13.9" y="23" width="100.8" height="124.6" fill="none"/>
<circle fill="none" cx="64.5" cy="0" r="0.1"/>
<circle fill="none" cx="96.3" cy="0" r="0.1"/>
<circle fill="none" cx="129" cy="43.7" r="0.1"/>
<circle fill="none" cx="129" cy="86.5" r="0.1"/>
<circle fill="none" cx="129" cy="129.3" r="0.1"/>
<circle fill="none" cx="96.3" cy="173" r="0.1"/>
<circle fill="none" cx="64.5" cy="173" r="0.1"/>
<circle fill="none" cx="32.7" cy="173" r="0.1"/>
<circle fill="none" cx="0" cy="129.3" r="0.1"/>
<circle fill="none" cx="0" cy="86.5" r="0.1"/>
<circle fill="none" cx="0" cy="43.7" r="0.1"/>
<circle fill="none" cx="32.7" cy="0" r="0.1"/>
</g></g><rect stroke="none" stroke-width="1" fill="#FFFFFF" x="0" y="0" width="40" height="20" transform="translate(106.2,-62.1)"/><path stroke="#000000" fill="none" d="M96.3,0 C124.3,-7.6 92.3,-34.5 120.4 -42.1"/><text font-family="OpenSansCondensedLight" font-size="14pt" fill="black" transform="translate(106.2,-62.1)" text-anchor="middle"><tspan x="20" y="16.3">112</tspan></text><rect stroke-width="0" fill="none" width="100.8" height="124.6" transform="translate(13.9,23)"/><text font-family="OpenSansCondensedLight" font-size="14pt" fill="black" transform="translate(13.9,23)" text-anchor="middle"><tspan x="50.4" y="68.6"> </tspan></text><path stroke="#000000" fill="none" transform="translate(13.9,23)" d="M 0 0"/></g><g transform="translate(35,94)"><g><g>
<path d="M20,0H0v19h20V0L20,0z" stroke="#000000" stroke-dasharray="none" fill="#FFFFFF"/>
<rect x="0.9" y="0.9" width="18.3" height="17.3" fill="none"/>
<circle fill="none" cx="10" cy="0" r="0.1"/>
<circle fill="none" cx="15" cy="0" r="0.1"/>
<circle fill="none" cx="20" cy="4.8" r="0.1"/>
<circle fill="none" cx="20" cy="9.5" r="0.1"/>
<circle fill="none" cx="20" cy="14.2" r="0.1"/>
<circle fill="none" cx="15" cy="19" r="0.1"/>
<circle fill="none" cx="10" cy="19" r="0.1"/>
<circle fill="none" cx="5" cy="19" r="0.1"/>
<circle fill="none" cx="0" cy="14.2" r="0.1"/>
<circle fill="none" cx="0" cy="9.5" r="0.1"/>
<circle fill="none" cx="0" cy="4.8" r="0.1"/>
<circle fill="none" cx="5" cy="0" r="0.1"/>
</g></g><rect stroke="none" stroke-width="0" fill="#FFFFFF" x="0" y="0" width="0" height="0" transform="translate(19.9,9.4)"/><path stroke="#000000" fill="none" d=""/><text font-family="OpenSansCondensedLight" font-size="14pt" fill="black" transform="translate(19.9,9.4)"/><rect stroke-width="0" fill="none" width="18.3" height="17.3" transform="translate(0.9,0.9)"/><text font-family="OpenSansCondensedLight" font-size="14pt" fill="black" transform="translate(0.9,0.9)" text-anchor="middle"><tspan x="9.1" y="14.9"> </tspan></text><path stroke="#000000" fill="none" transform="translate(0.9,0.9)" d="M 0 0"/></g><g transform="translate(66,94)"><g><g>
<path d="M20,0H0v19h20V0L20,0z" stroke="#000000" stroke-dasharray="none" fill="#FFFFFF"/>
<rect x="0.9" y="0.9" width="18.3" height="17.3" fill="none"/>
<circle fill="none" cx="10" cy="0" r="0.1"/>
<circle fill="none" cx="15" cy="0" r="0.1"/>
<circle fill="none" cx="20" cy="4.8" r="0.1"/>
<circle fill="none" cx="20" cy="9.5" r="0.1"/>
<circle fill="none" cx="20" cy="14.2" r="0.1"/>
<circle fill="none" cx="15" cy="19" r="0.1"/>
<circle fill="none" cx="10" cy="19" r="0.1"/>
<circle fill="none" cx="5" cy="19" r="0.1"/>
<circle fill="none" cx="0" cy="14.2" r="0.1"/>
<circle fill="none" cx="0" cy="9.5" r="0.1"/>
<circle fill="none" cx="0" cy="4.8" r="0.1"/>
<circle fill="none" cx="5" cy="0" r="0.1"/>
</g></g><rect stroke="none" stroke-width="0" fill="#FFFFFF" x="0" y="0" width="0" height="0" transform="translate(19.9,9.4)"/><path stroke="#000000" fill="none" d=""/><text font-family="OpenSansCondensedLight" font-size="14pt" fill="black" transform="translate(19.9,9.4)"/><rect stroke-width="0" fill="none" width="18.3" height="17.3" transform="translate(0.9,0.9)"/><text font-family="OpenSansCondensedLight" font-size="14pt" fill="black" transform="translate(0.9,0.9)" text-anchor="middle"><tspan x="9.1" y="14.9"> </tspan></text><path stroke="#000000" fill="none" transform="translate(0.9,0.9)" d="M 0 0"/></g><g transform="translate(98,126)"><g><g>
<path d="M20,0H0v19h20V0L20,0z" stroke="#000000" stroke-dasharray="none" fill="#FFFFFF"/>
<rect x="0.9" y="0.9" width="18.3" height="17.3" fill="none"/>
<circle fill="none" cx="10" cy="0" r="0.1"/>
<circle fill="none" cx="15" cy="0" r="0.1"/>
<circle fill="none" cx="20" cy="4.8" r="0.1"/>
<circle fill="none" cx="20" cy="9.5" r="0.1"/>
<circle fill="none" cx="20" cy="14.2" r="0.1"/>
<circle fill="none" cx="15" cy="19" r="0.1"/>
<circle fill="none" cx="10" cy="19" r="0.1"/>
<circle fill="none" cx="5" cy="19" r="0.1"/>
<circle fill="none" cx="0" cy="14.2" r="0.1"/>
<circle fill="none" cx="0" cy="9.5" r="0.1"/>
<circle fill="none" cx="0" cy="4.8" r="0.1"/>
<circle fill="none" cx="5" cy="0" r="0.1"/>
</g></g><rect stroke="none" stroke-width="0" fill="#FFFFFF" x="0" y="0" width="0" height="0" transform="translate(19.9,9.4)"/><path stroke="#000000" fill="none" d=""/><text font-family="OpenSansCondensedLight" font-size="14pt" fill="black" transform="translate(19.9,9.4)"/><rect stroke-width="0" fill="none" width="18.3" height="17.3" transform="translate(0.9,0.9)"/><text font-family="OpenSansCondensedLight" font-size="14pt" fill="black" transform="translate(0.9,0.9)" text-anchor="middle"><tspan x="9.1" y="14.9"> </tspan></text><path stroke="#000000" fill="none" transform="translate(0.9,0.9)" d="M 0 0"/></g><g transform="translate(35,126)"><g><g>
<path d="M20,0H0v19h20V0L20,0z" stroke="#000000" stroke-dasharray="none" fill="#FFFFFF"/>
<rect x="0.9" y="0.9" width="18.3" height="17.3" fill="none"/>
<circle fill="none" cx="10" cy="0" r="0.1"/>
<circle fill="none" cx="15" cy="0" r="0.1"/>
<circle fill="none" cx="20" cy="4.8" r="0.1"/>
<circle fill="none" cx="20" cy="9.5" r="0.1"/>
<circle fill="none" cx="20" cy="14.2" r="0.1"/>
<circle fill="none" cx="15" cy="19" r="0.1"/>
<circle fill="none" cx="10" cy="19" r="0.1"/>
<circle fill="none" cx="5" cy="19" r="0.1"/>
<circle fill="none" cx="0" cy="14.2" r="0.1"/>
<circle fill="none" cx="0" cy="9.5" r="0.1"/>
<circle fill="none" cx="0" cy="4.8" r="0.1"/>
<circle fill="none" cx="5" cy="0" r="0.1"/>
</g></g><rect stroke="none" stroke-width="0" fill="#FFFFFF" x="0" y="0" width="0" height="0" transform="translate(19.9,9.4)"/><path stroke="#000000" fill="none" d=""/><text font-family="OpenSansCondensedLight" font-size="14pt" fill="black" transform="translate(19.9,9.4)"/><rect stroke-width="0" fill="none" width="18.3" height="17.3" transform="translate(0.9,0.9)"/><text font-family="OpenSansCondensedLight" font-size="14pt" fill="black" transform="translate(0.9,0.9)" text-anchor="middle"><tspan x="9.1" y="14.9"> </tspan></text><path stroke="#000000" fill="none" transform="translate(0.9,0.9)" d="M 0 0"/></g><g transform="translate(66,126)"><g><g>
<path d="M20,0H0v19h20V0L20,0z" stroke="#000000" stroke-dasharray="none" fill="#FFFFFF"/>
<rect x="0.9" y="0.9" width="18.3" height="17.3" fill="none"/>
<circle fill="none" cx="10" cy="0" r="0.1"/>
<circle fill="none" cx="15" cy="0" r="0.1"/>
<circle fill="none" cx="20" cy="4.8" r="0.1"/>
<circle fill="none" cx="20" cy="9.5" r="0.1"/>
<circle fill="none" cx="20" cy="14.2" r="0.1"/>
<circle fill="none" cx="15" cy="19" r="0.1"/>
<circle fill="none" cx="10" cy="19" r="0.1"/>
<circle fill="none" cx="5" cy="19" r="0.1"/>
<circle fill="none" cx="0" cy="14.2" r="0.1"/>
<circle fill="none" cx="0" cy="9.5" r="0.1"/>
<circle fill="none" cx="0" cy="4.8" r="0.1"/>
<circle fill="none" cx="5" cy="0" r="0.1"/>
</g></g><rect stroke="none" stroke-width="0" fill="#FFFFFF" x="0" y="0" width="0" height="0" transform="translate(19.9,9.4)"/><path stroke="#000000" fill="none" d=""/><text font-family="OpenSansCondensedLight" font-size="14pt" fill="black" transform="translate(19.9,9.4)"/><rect stroke-width="0" fill="none" width="18.3" height="17.3" transform="translate(0.9,0.9)"/><text font-family="OpenSansCondensedLight" font-size="14pt" fill="black" transform="translate(0.9,0.9)" text-anchor="middle"><tspan x="9.1" y="14.9"> </tspan></text><path stroke="#000000" fill="none" transform="translate(0.9,0.9)" d="M 0 0"/></g><g transform="translate(98,94)"><g><g>
<path d="M20,0H0v19h20V0L20,0z" stroke="#000000" stroke-dasharray="none" fill="#FFFFFF"/>
<rect x="0.9" y="0.9" width="18.3" height="17.3" fill="none"/>
<circle fill="none" cx="10" cy="0" r="0.1"/>
<circle fill="none" cx="15" cy="0" r="0.1"/>
<circle fill="none" cx="20" cy="4.8" r="0.1"/>
<circle fill="none" cx="20" cy="9.5" r="0.1"/>
<circle fill="none" cx="20" cy="14.2" r="0.1"/>
<circle fill="none" cx="15" cy="19" r="0.1"/>
<circle fill="none" cx="10" cy="19" r="0.1"/>
<circle fill="none" cx="5" cy="19" r="0.1"/>
<circle fill="none" cx="0" cy="14.2" r="0.1"/>
<circle fill="none" cx="0" cy="9.5" r="0.1"/>
<circle fill="none" cx="0" cy="4.8" r="0.1"/>
<circle fill="none" cx="5" cy="0" r="0.1"/>
</g></g><rect stroke="none" stroke-width="0" fill="#FFFFFF" x="0" y="0" width="0" height="0" transform="translate(19.9,9.4)"/><path stroke="#000000" fill="none" d=""/><text font-family="OpenSansCondensedLight" font-size="14pt" fill="black" transform="translate(19.9,9.4)"/><rect stroke-width="0" fill="none" width="18.3" height="17.3" transform="translate(0.9,0.9)"/><text font-family="OpenSansCondensedLight" font-size="14pt" fill="black" transform="translate(0.9,0.9)" text-anchor="middle"><tspan x="9.1" y="14.9"> </tspan></text><path stroke="#000000" fill="none" transform="translate(0.9,0.9)" d="M 0 0"/></g><g><path stroke="black" stroke-dasharray="none" d="M 187 80 154 80" fill="none"/><path fill="black" stroke="black" d="M 8 0 L 0 4 L 8 8 z" transform="translate(195,84) scale(1,1) rotate(-180)"/><path fill="black" stroke="black" d="M 8 0 L 0 4 L 8 8 z" transform="translate(146,76) scale(1,1) rotate(0)"/><g><g label-idx="0" cursor="move" transform="translate(170.5, 80)"><rect fill="white" rx="3" ry="3" x="0" y="0" width="0" height="0"/><text text-anchor="middle" font-size="14pt" font-family="OpenSansCondensedLight" y="0.8em" display="none" xml:space="preserve" transform="translate(0,0)"/></g></g></g><g transform="translate(178,365)"><g><g>
<g stroke="#000000" stroke-dasharray="none" fill="#FFFFFF">
    <path d="M163.1,0H13.9C6.1,0,0,6,0,13.7v213.5c0,7.7,6.1,13.7,13.9,13.7h149.3c7.8,0,13.9,-6,13.9,-13.7V13.7C177,6,170.8,0,163.1,0L163.1,0z"/>
    <path d="M77.7,12c0.8,0,1.7,0.8,1.7,1.7c0,0.8,-0.8,1.7,-1.7,1.7s-1.7,-0.8,-1.7,-1.7C76.5,12.9,76.8,12,77.7,12"/>
    <path d="M100.5,12c0.8,0,1.7,0.8,1.7,1.7c0,0.8,-0.8,1.7,-1.7,1.7h-15c-0.8,0,-1.7,-0.8,-1.7,-1.7c0,-0.8,0.8,-1.7,1.7,-1.7H100.5"/>
    <path d="M88.5,222.4c3.7,0,6.6,2.8,6.6,6.5s-2.9,6.5,-6.6,6.5s-6.6,-2.8,-6.6,-6.5S84.8,222.4,88.5,222.4"/>
    <path d="M165.2,22.6h-2H13.9h-2v2v191.8v2h2h149.3h2v-2V24.6L165.2,22.6L165.2,22.6z"/>
</g>
<rect x="19.1" y="32" width="138.3" height="173.5" fill="none"/>
<circle fill="none" cx="88.5" cy="0" r="0.1"/>
<circle fill="none" cx="132.1" cy="0" r="0.1"/>
<circle fill="none" cx="177" cy="60.9" r="0.1"/>
<circle fill="none" cx="177" cy="120.5" r="0.1"/>
<circle fill="none" cx="177" cy="180.1" r="0.1"/>
<circle fill="none" cx="132.1" cy="241" r="0.1"/>
<circle fill="none" cx="88.5" cy="241" r="0.1"/>
<circle fill="none" cx="44.9" cy="241" r="0.1"/>
<circle fill="none" cx="0" cy="180.1" r="0.1"/>
<circle fill="none" cx="0" cy="120.5" r="0.1"/>
<circle fill="none" cx="0" cy="60.9" r="0.1"/>
<circle fill="none" cx="44.9" cy="0" r="0.1"/>
</g></g><rect stroke="none" stroke-width="1" fill="#FFFFFF" x="0" y="0" width="40" height="20" transform="translate(216.9,110.4)"/><path stroke="#000000" fill="none" d="M177,120.5 C194,137.4 199.9,103.5 216.9 120.4"/><text font-family="OpenSansCondensedLight" font-size="14pt" fill="black" transform="translate(216.9,110.4)" text-anchor="middle"><tspan x="20" y="16.3">114</tspan></text><rect stroke-width="0" fill="none" width="138.3" height="173.5" transform="translate(19.1,32)"/><text font-family="OpenSansCondensedLight" font-size="14pt" fill="black" transform="translate(19.1,32)" text-anchor="middle"><tspan x="69.2" y="93.1"> </tspan></text><path stroke="#000000" fill="none" transform="translate(19.1,32)" d="M 0 0"/></g><g transform="translate(230,467)"><g><g>
<path d="M62.9,0H0v24.4h62.9V0L62.9,0z" fill="none" stroke="none" stroke-dasharray="none"/>
<rect x="2.7" y="1.1" width="57.4" height="22.2" fill="none"/>
<circle fill="none" cx="31.4" cy="0" r="0.1"/>
<circle fill="none" cx="47" cy="0" r="0.1"/>
<circle fill="none" cx="62.9" cy="6.1" r="0.1"/>
<circle fill="none" cx="62.9" cy="12.2" r="0.1"/>
<circle fill="none" cx="62.9" cy="18.2" r="0.1"/>
<circle fill="none" cx="47" cy="24.4" r="0.1"/>
<circle fill="none" cx="31.4" cy="24.4" r="0.1"/>
<circle fill="none" cx="15.9" cy="24.4" r="0.1"/>
<circle fill="none" cx="0" cy="18.2" r="0.1"/>
<circle fill="none" cx="0" cy="12.2" r="0.1"/>
<circle fill="none" cx="0" cy="6.1" r="0.1"/>
<circle fill="none" cx="15.9" cy="0" r="0.1"/>
</g></g><rect stroke="none" stroke-width="0" fill="#FFFFFF" x="0" y="0" width="0" height="0" transform="translate(62.8,12.1)"/><path stroke="#000000" fill="none" d=""/><text font-family="OpenSansCondensedLight" font-size="14pt" fill="black" transform="translate(62.8,12.1)"/><rect stroke-width="0" fill="none" width="57.4" height="22.2" transform="translate(2.7,1.1)"/><text font-family="OpenSansCondensedLight" font-size="14pt" fill="black" transform="translate(2.7,1.1)" text-anchor="middle"><tspan x="28.7" y="17.4">CONTENT</tspan></text><path stroke="#000000" fill="none" transform="translate(2.7,1.1)" d="M 0 0"/></g><g><path stroke="black" stroke-dasharray="none" d="M 170 424 C 114.8 424 59.7 424 39 394 C 18.3 364 32.2 304 46 244" fill="none"/><path fill="black" stroke="black" d="M 8 0 L 0 4 L 8 8 z" transform="translate(177.1,429.9) scale(1,1) rotate(-167)"/><path fill="black" stroke="black" d="M 8 0 L 0 4 L 8 8 z" transform="translate(50,236.2) scale(1,1) rotate(-267.5)"/><g><g label-idx="0" cursor="move" transform="translate(35.4, 387.7)"><rect fill="white" rx="3" ry="3" x="-23" y="-13.1" width="46" height="22"/><text text-anchor="start" font-size="14pt" font-family="OpenSansCondensedLight" y="0.8em" display="null" xml:space="preserve" transform="translate(0,-11)"><tspan x="-13.6" y="0.8em" text-decoration="underline">116</tspan></text></g></g></g><g><path stroke="black" stroke-dasharray="none" d="M 229 354 229 315" fill="none"/><path fill="black" stroke="black" d="M 8 0 L 0 4 L 8 8 z" transform="translate(225,362) scale(1,1) rotate(-90)"/><path fill="black" stroke="black" d="M 8 0 L 0 4 L 8 8 z" transform="translate(233,307) scale(1,1) rotate(-270)"/><g><g label-idx="0" cursor="move" transform="translate(229, 334.5)"><rect fill="white" rx="3" ry="3" x="0" y="0" width="0" height="0"/><text text-anchor="middle" font-size="14pt" font-family="OpenSansCondensedLight" y="0.8em" display="none" xml:space="preserve" transform="translate(0,0)"/></g></g></g><g transform="translate(506,379)"><g><g>
<path d="M102,0H0v127h102V0L102,0z" stroke="#000000" stroke-dasharray="none" fill="#FFFFFF"/>
<rect x="4.5" y="5.8" width="93.1" height="115.4" fill="none"/>
<circle fill="none" cx="51" cy="0" r="0.1"/>
<circle fill="none" cx="76.3" cy="0" r="0.1"/>
<circle fill="none" cx="102" cy="32" r="0.1"/>
<circle fill="none" cx="102" cy="63.5" r="0.1"/>
<circle fill="none" cx="102" cy="95" r="0.1"/>
<circle fill="none" cx="76.3" cy="127" r="0.1"/>
<circle fill="none" cx="51" cy="127" r="0.1"/>
<circle fill="none" cx="25.7" cy="127" r="0.1"/>
<circle fill="none" cx="0" cy="95" r="0.1"/>
<circle fill="none" cx="0" cy="63.5" r="0.1"/>
<circle fill="none" cx="0" cy="32" r="0.1"/>
<circle fill="none" cx="25.7" cy="0" r="0.1"/>
</g></g><rect stroke="none" stroke-width="1" fill="#FFFFFF" x="0" y="0" width="40" height="20" transform="translate(30.9,176.9)"/><path stroke="#000000" fill="none" d="M51,127 C29.8,148.1 72.1,155.8 50.9 176.9"/><text font-family="OpenSansCondensedLight" font-size="14pt" fill="black" transform="translate(30.9,176.9)" text-anchor="middle"><tspan x="20" y="16.3">118</tspan></text><rect stroke-width="0" fill="none" width="93.1" height="115.4" transform="translate(4.5,5.8)"/><text font-family="OpenSansCondensedLight" font-size="14pt" fill="black" transform="translate(4.5,5.8)" text-anchor="middle"><tspan x="46.5" y="53.5">LOCATION</tspan><tspan x="46.5" y="74.5">SERVICE</tspan></text><path stroke="#000000" fill="none" transform="translate(4.5,5.8)" d="M 0 0"/></g><g transform="translate(638,379)"><g><g>
<path d="M102,0H0v127h102V0L102,0z" stroke="#000000" stroke-dasharray="none" fill="#FFFFFF"/>
<rect x="4.5" y="5.8" width="93.1" height="115.4" fill="none"/>
<circle fill="none" cx="51" cy="0" r="0.1"/>
<circle fill="none" cx="76.3" cy="0" r="0.1"/>
<circle fill="none" cx="102" cy="32" r="0.1"/>
<circle fill="none" cx="102" cy="63.5" r="0.1"/>
<circle fill="none" cx="102" cy="95" r="0.1"/>
<circle fill="none" cx="76.3" cy="127" r="0.1"/>
<circle fill="none" cx="51" cy="127" r="0.1"/>
<circle fill="none" cx="25.7" cy="127" r="0.1"/>
<circle fill="none" cx="0" cy="95" r="0.1"/>
<circle fill="none" cx="0" cy="63.5" r="0.1"/>
<circle fill="none" cx="0" cy="32" r="0.1"/>
<circle fill="none" cx="25.7" cy="0" r="0.1"/>
</g></g><rect stroke="none" stroke-width="1" fill="#FFFFFF" x="0" y="0" width="40" height="20" transform="translate(30.9,176.9)"/><path stroke="#000000" fill="none" d="M51,127 C29.8,148.1 72.1,155.8 50.9 176.9"/><text font-family="OpenSansCondensedLight" font-size="14pt" fill="black" transform="translate(30.9,176.9)" text-anchor="middle"><tspan x="20" y="16.3">120</tspan></text><rect stroke-width="0" fill="none" width="93.1" height="115.4" transform="translate(4.5,5.8)"/><text font-family="OpenSansCondensedLight" font-size="14pt" fill="black" transform="translate(4.5,5.8)" text-anchor="middle"><tspan x="46.5" y="64">MAP SERVICE</tspan></text><path stroke="#000000" fill="none" transform="translate(4.5,5.8)" d="M 0 0"/></g><g><path stroke="black" stroke-dasharray="none" d="M 553 371 553 230" fill="none"/><path fill="black" stroke="black" d="M 8 0 L 0 4 L 8 8 z" transform="translate(549,379) scale(1,1) rotate(-90)"/><path fill="black" stroke="black" d="M 8 0 L 0 4 L 8 8 z" transform="translate(557,222) scale(1,1) rotate(-270)"/><g><g label-idx="0" cursor="move" transform="translate(553, 300.5)"><rect fill="white" rx="3" ry="3" x="0" y="0" width="0" height="0"/><text text-anchor="middle" font-size="14pt" font-family="OpenSansCondensedLight" y="0.8em" display="none" xml:space="preserve" transform="translate(0,0)"/></g></g></g><g><path stroke="black" stroke-dasharray="none" d="M 691 371 691 231" fill="none"/><path fill="black" stroke="black" d="M 8 0 L 0 4 L 8 8 z" transform="translate(687,379) scale(1,1) rotate(-90)"/><path fill="black" stroke="black" d="M 8 0 L 0 4 L 8 8 z" transform="translate(695,223) scale(1,1) rotate(-270)"/><g><g label-idx="0" cursor="move" transform="translate(691, 301)"><rect fill="white" rx="3" ry="3" x="0" y="0" width="0" height="0"/><text text-anchor="middle" font-size="14pt" font-family="OpenSansCondensedLight" y="0.8em" display="none" xml:space="preserve" transform="translate(0,0)"/></g></g></g></g><defs/></svg>